<svg width="16" height="26" viewBox="0 0 16 26" fill="none" xmlns="http://www.w3.org/2000/svg">
<path d="M8.02476 17.6474C7.9518 17.6722 7.91021 17.6087 7.8606 17.5795C5.42871 16.1442 2.9995 14.7079 0.572957 13.2707C0.54946 13.2588 0.525066 13.2488 0.5 13.2408V13.2087L0.543046 13.1839C0.604165 13.1678 0.664331 13.1483 0.723252 13.1255L6.454 10.518C6.9647 10.2853 7.47539 10.0562 7.98609 9.82568H8.02257C8.02257 9.89864 8.02257 9.96357 8.02257 10.0329C8.02452 12.5713 8.02524 15.1094 8.02476 17.6474Z" fill="#343535"/>
<path d="M8.02838 9.82745H7.9919C7.9919 9.7545 7.9992 9.68154 7.9992 9.60494C7.9992 6.75379 7.9992 3.9024 7.9992 1.05077C7.99081 0.977531 7.99575 0.903379 8.01379 0.831901H8.02911C8.32896 1.27475 8.59015 1.74167 8.86592 2.19911C11.0507 5.82311 13.2343 9.44662 15.4167 13.0696C15.4379 13.1054 15.4546 13.1426 15.4736 13.182C15.4118 13.1688 15.3511 13.151 15.2919 13.1287C14.8914 12.9478 14.4894 12.764 14.0925 12.5794C13.471 12.2948 12.8491 12.0108 12.227 11.7272L9.22998 10.3695C8.8309 10.1857 8.42964 10.0069 8.02838 9.82745Z" fill="#2F3030"/>
<path d="M8.01619 0.82813C7.99816 0.899608 7.99321 0.973761 8.0016 1.047C8.0016 3.89814 8.0016 6.74953 8.0016 9.60116C8.0016 9.67412 7.99722 9.74708 7.9943 9.82368C7.48361 10.0542 6.97291 10.2833 6.46221 10.516L0.731465 13.1235C0.672544 13.1463 0.612378 13.1658 0.55126 13.1819C0.716871 12.8375 0.932096 12.5253 1.12835 12.1955C3.40217 8.41586 5.67768 4.63695 7.95491 0.858773C7.96995 0.837843 7.98628 0.817863 8.00379 0.798948L8.01619 0.82813Z" fill="#828384"/>
<path d="M8.02838 9.82745C8.42964 10.0069 8.83103 10.1857 9.23156 10.3667L12.2286 11.7244C12.8512 12.0075 13.473 12.2915 14.0941 12.5765C14.4939 12.7596 14.8966 12.945 15.2935 13.1259C15.3527 13.1481 15.4134 13.1659 15.4752 13.1791C15.5481 13.2703 15.4402 13.274 15.4073 13.2937C14.785 13.6658 14.1598 14.0327 13.536 14.4019C11.7456 15.4612 9.95577 16.5203 8.16639 17.5792C8.12115 17.6054 8.07218 17.6248 8.02476 17.6474C8.02476 15.1099 8.02485 12.5726 8.02485 10.0347C8.02558 9.9654 8.02765 9.89676 8.02838 9.82745Z" fill="#131313"/>
<path d="M7.99912 19.0888L12.6866 16.3259C13.5815 15.7977 14.476 15.269 15.3699 14.7398L15.4509 14.6953C15.4589 14.7683 15.4086 14.8069 15.378 14.8492C13.3352 17.7291 11.2924 20.608 9.2496 23.4858C8.86293 24.0316 8.47699 24.5802 8.08667 25.1215C8.06624 25.15 8.03487 25.2835 7.97213 25.142C8.02174 25.0996 7.99985 25.0427 7.99985 24.996C8.00034 23.0262 8.00009 21.0571 7.99912 19.0888Z" fill="#2F3030"/>
<path d="M7.99872 19.0891C7.99872 21.0575 7.99872 23.0254 7.99872 24.9928C7.99872 25.0431 8.02061 25.1 7.97099 25.1387C7.86667 25.0759 7.82143 24.9636 7.75212 24.8709C5.38346 21.5344 3.01602 18.1973 0.649791 14.8598C0.619878 14.8175 0.592153 14.7723 0.561511 14.7256C0.622795 14.6898 0.655628 14.7387 0.691377 14.7599C3.08679 16.1743 5.48171 17.5899 7.87615 19.0067C7.92066 19.0344 7.95859 19.0629 7.99872 19.0891Z" fill="#828384"/>
<path d="M8.01673 0.82809L7.99922 0.801096C8.03132 0.780669 8.02695 0.81058 8.03205 0.825901L8.01673 0.82809Z" fill="#393939"/>
</svg>
